<svg version="1.1" baseProfile="full" width="945" height="607" viewbox="0 0 945 607" xmlns="http://www.w3.org/2000/svg" xmlns:xlink="http://www.w3.org/1999/xlink" xmlns:ev="http://www.w3.org/2001/xml-events" style="font-weight:bold; font-size:12pt; font-family:'Calibri', Helvetica, sans-serif;;stroke-width:3;stroke-linejoin:round;stroke-linecap:round">
  <title >nomnoml</title>
  <desc >#direction : right
[&lt;con&gt; Contrôleur|
	[GameLauncher|] --&gt; [Controleur]
    [Controleur|]
] &lt;--&gt; [Modèle]
[&lt;mod&gt; Modèle |
	[Jeu|] --&gt; [Pont]
	[Pont|]
] &lt;--&gt; [Générateur]
[&lt;gen&gt; Générateur |
	[GenNiveaux|] --&gt; [Plateau]
    [Plateau|]
]

[Contrôleur] &lt;--&gt; [Vue]
[&lt;vue&gt; Vue|
	[VueGraphique|] --&gt; [PontGraph]
	[VueGraphique] --&gt; [ObjetsAffichage]
	[PontGraph|]
	[ObjetsAffichage|
		[Fenetre] --&gt; [Niveau]
    	[Fenetre] --&gt; [MenuBar]
    	[Fenetre] --&gt; [Acceuil]
    	[Niveau] --&gt; [ImagePane]
    	[ImagePane]
    	[MenuBar]
    	[Acceuil]
	]
]

#.vue: visual=roundrect
#.vue: fill=#8f8

#.gen: visual=roundrect
#.gen: fill=#9a9

#.mod: visual=roundrect
#.mod: fill=#aff

#.con: visual=roundrect
#.con: fill=#fa1</desc>
  <path d="M146.7 168.8 L189.5 101 L440.5 101 L440.5 101 " style="stroke:#33322E;fill:none;stroke-dasharray:6 6;"></path>
  <path d="M427.2 106.3 L433.8 101 L427.2 95.7 L440.5 101 Z" style="stroke:#33322E;fill:#33322E;stroke-dasharray:none;"></path>
  <path d="M149.3 154.6 L150.3 163.1 L158.4 160.3 L146.7 168.8 Z" style="stroke:#33322E;fill:#33322E;stroke-dasharray:none;"></path>
  <path d="M524.5 101 L775.5 101 L795.5 101 L795.5 101 " style="stroke:#33322E;fill:none;stroke-dasharray:6 6;"></path>
  <path d="M782.2 106.3 L788.8 101 L782.2 95.7 L795.5 101 Z" style="stroke:#33322E;fill:#33322E;stroke-dasharray:none;"></path>
  <path d="M537.8 95.7 L531.2 101 L537.8 106.3 L524.5 101 Z" style="stroke:#33322E;fill:#33322E;stroke-dasharray:none;"></path>
  <path d="M146.7 343.8 L189.5 411.5 L209.5 411.5 L209.5 411.5 " style="stroke:#33322E;fill:none;stroke-dasharray:6 6;"></path>
  <path d="M196.2 416.8 L202.8 411.5 L196.2 406.2 L209.5 411.5 Z" style="stroke:#33322E;fill:#33322E;stroke-dasharray:none;"></path>
  <path d="M158.4 352.2 L150.3 349.4 L149.3 357.9 L146.7 343.8 Z" style="stroke:#33322E;fill:#33322E;stroke-dasharray:none;"></path>
  <rect x="13.5" y="168.5" height="175" width="156" style="stroke:#33322E;fill:#fa1;stroke-dasharray:none;"></rect>
  <text x="91.5" y="190" style="fill: #33322E;font-weight:normal;text-anchor: middle;">Contrôleur</text>
  <path d="M13.5 199.5 L169.5 199.5" style="stroke:#33322E;fill:none;stroke-dasharray:none;"></path>
  <path d="M91.5 251.5 L91.5 271.5 L91.5 291.5 L91.5 291.5 " style="stroke:#33322E;fill:none;stroke-dasharray:6 6;"></path>
  <path d="M86.2 278.2 L91.5 284.8 L96.8 278.2 L91.5 291.5 Z" style="stroke:#33322E;fill:#33322E;stroke-dasharray:none;"></path>
  <rect x="26.5" y="212.5" height="39" width="130" style="stroke:#33322E;fill:#fdf6e3;stroke-dasharray:none;"></rect>
  <text x="91.5" y="234" style="fill: #33322E;text-anchor: middle;">GameLauncher</text>
  <path d="M26.5 243.5 L156.5 243.5" style="stroke:#33322E;fill:none;stroke-dasharray:none;"></path>
  <rect x="36.5" y="291.5" height="39" width="111" style="stroke:#33322E;fill:#fdf6e3;stroke-dasharray:none;"></rect>
  <text x="92" y="313" style="fill: #33322E;text-anchor: middle;">Controleur</text>
  <path d="M36.5 322.5 L147.5 322.5" style="stroke:#33322E;fill:none;stroke-dasharray:none;"></path>
  <rect x="440.5" y="13.5" height="175" width="84" style="stroke:#33322E;fill:#aff;stroke-dasharray:none;"></rect>
  <text x="482.5" y="35" style="fill: #33322E;font-weight:normal;text-anchor: middle;">Modèle</text>
  <path d="M440.5 44.5 L524.5 44.5" style="stroke:#33322E;fill:none;stroke-dasharray:none;"></path>
  <path d="M480.5 96.5 L480.5 116.5 L480.5 136.5 L480.5 136.5 " style="stroke:#33322E;fill:none;stroke-dasharray:6 6;"></path>
  <path d="M475.2 123.2 L480.5 129.8 L485.8 123.2 L480.5 136.5 Z" style="stroke:#33322E;fill:#33322E;stroke-dasharray:none;"></path>
  <rect x="458.5" y="57.5" height="39" width="45" style="stroke:#33322E;fill:#fdf6e3;stroke-dasharray:none;"></rect>
  <text x="481" y="79" style="fill: #33322E;text-anchor: middle;">Jeu</text>
  <path d="M458.5 88.5 L503.5 88.5" style="stroke:#33322E;fill:none;stroke-dasharray:none;"></path>
  <rect x="453.5" y="136.5" height="39" width="54" style="stroke:#33322E;fill:#fdf6e3;stroke-dasharray:none;"></rect>
  <text x="480.5" y="158" style="fill: #33322E;text-anchor: middle;">Pont</text>
  <path d="M453.5 167.5 L507.5 167.5" style="stroke:#33322E;fill:none;stroke-dasharray:none;"></path>
  <rect x="795.5" y="13.5" height="175" width="137" style="stroke:#33322E;fill:#9a9;stroke-dasharray:none;"></rect>
  <text x="864" y="35" style="fill: #33322E;font-weight:normal;text-anchor: middle;">Générateur</text>
  <path d="M795.5 44.5 L932.5 44.5" style="stroke:#33322E;fill:none;stroke-dasharray:none;"></path>
  <path d="M864 96.5 L864 116.5 L864 136.5 L864 136.5 " style="stroke:#33322E;fill:none;stroke-dasharray:6 6;"></path>
  <path d="M858.7 123.2 L864 129.8 L869.3 123.2 L864 136.5 Z" style="stroke:#33322E;fill:#33322E;stroke-dasharray:none;"></path>
  <rect x="808.5" y="57.5" height="39" width="111" style="stroke:#33322E;fill:#fdf6e3;stroke-dasharray:none;"></rect>
  <text x="864" y="79" style="fill: #33322E;text-anchor: middle;">GenNiveaux</text>
  <path d="M808.5 88.5 L919.5 88.5" style="stroke:#33322E;fill:none;stroke-dasharray:none;"></path>
  <rect x="822.5" y="136.5" height="39" width="83" style="stroke:#33322E;fill:#fdf6e3;stroke-dasharray:none;"></rect>
  <text x="864" y="158" style="fill: #33322E;text-anchor: middle;">Plateau</text>
  <path d="M822.5 167.5 L905.5 167.5" style="stroke:#33322E;fill:none;stroke-dasharray:none;"></path>
  <rect x="209.5" y="228.5" height="366" width="546" style="stroke:#33322E;fill:#8f8;stroke-dasharray:none;"></rect>
  <text x="482.5" y="250" style="fill: #33322E;font-weight:normal;text-anchor: middle;">Vue</text>
  <path d="M209.5 259.5 L755.5 259.5" style="stroke:#33322E;fill:none;stroke-dasharray:none;"></path>
  <path d="M348.5 310.3 L273.5 331.5 L273.5 447 L273.5 447 " style="stroke:#33322E;fill:none;stroke-dasharray:6 6;"></path>
  <path d="M268.2 433.7 L273.5 440.3 L278.8 433.7 L273.5 447 Z" style="stroke:#33322E;fill:#33322E;stroke-dasharray:none;"></path>
  <path d="M478.5 310.3 L553.5 331.5 L553.5 351.5 L553.5 351.5 " style="stroke:#33322E;fill:none;stroke-dasharray:6 6;"></path>
  <path d="M548.2 338.2 L553.5 344.8 L558.8 338.2 L553.5 351.5 Z" style="stroke:#33322E;fill:#33322E;stroke-dasharray:none;"></path>
  <rect x="348.5" y="272.5" height="39" width="130" style="stroke:#33322E;fill:#fdf6e3;stroke-dasharray:none;"></rect>
  <text x="413.5" y="294" style="fill: #33322E;text-anchor: middle;">VueGraphique</text>
  <path d="M348.5 303.5 L478.5 303.5" style="stroke:#33322E;fill:none;stroke-dasharray:none;"></path>
  <rect x="222.5" y="447.5" height="39" width="102" style="stroke:#33322E;fill:#fdf6e3;stroke-dasharray:none;"></rect>
  <text x="273.5" y="469" style="fill: #33322E;text-anchor: middle;">PontGraph</text>
  <path d="M222.5 478.5 L324.5 478.5" style="stroke:#33322E;fill:none;stroke-dasharray:none;"></path>
  <rect x="364.5" y="351.5" height="230" width="378" style="stroke:#33322E;fill:#fdf6e3;stroke-dasharray:none;"></rect>
  <text x="553.5" y="373" style="fill: #33322E;text-anchor: middle;">ObjetsAffichage</text>
  <path d="M364.5 382.5 L742.5 382.5" style="stroke:#33322E;fill:none;stroke-dasharray:none;"></path>
  <path d="M432.4 466.5 L480.5 411 L507.5 411 L507.5 411 " style="stroke:#33322E;fill:none;stroke-dasharray:6 6;"></path>
  <path d="M494.2 416.3 L500.8 411 L494.2 405.7 L507.5 411 Z" style="stroke:#33322E;fill:#33322E;stroke-dasharray:none;"></path>
  <path d="M460.5 482 L480.5 482 L500.5 482 L500.5 482 " style="stroke:#33322E;fill:none;stroke-dasharray:6 6;"></path>
  <path d="M487.2 487.3 L493.8 482 L487.2 476.7 L500.5 482 Z" style="stroke:#33322E;fill:#33322E;stroke-dasharray:none;"></path>
  <path d="M432.4 497.5 L480.5 553 L502.5 553 L502.5 553 " style="stroke:#33322E;fill:none;stroke-dasharray:6 6;"></path>
  <path d="M489.2 558.3 L495.8 553 L489.2 547.7 L502.5 553 Z" style="stroke:#33322E;fill:#33322E;stroke-dasharray:none;"></path>
  <path d="M580.5 411 L607.5 411 L627.5 411 L627.5 411 " style="stroke:#33322E;fill:none;stroke-dasharray:6 6;"></path>
  <path d="M614.2 416.3 L620.8 411 L614.2 405.7 L627.5 411 Z" style="stroke:#33322E;fill:#33322E;stroke-dasharray:none;"></path>
  <rect x="377.5" y="466.5" height="31" width="83" style="stroke:#33322E;fill:#eee8d5;stroke-dasharray:none;"></rect>
  <text x="419" y="488" style="fill: #33322E;text-anchor: middle;">Fenetre</text>
  <rect x="507.5" y="395.5" height="31" width="73" style="stroke:#33322E;fill:#eee8d5;stroke-dasharray:none;"></rect>
  <text x="544" y="417" style="fill: #33322E;text-anchor: middle;">Niveau</text>
  <rect x="500.5" y="466.5" height="31" width="87" style="stroke:#33322E;fill:#eee8d5;stroke-dasharray:none;"></rect>
  <text x="544" y="488" style="fill: #33322E;text-anchor: middle;">MenuBar</text>
  <rect x="502.5" y="537.5" height="31" width="83" style="stroke:#33322E;fill:#eee8d5;stroke-dasharray:none;"></rect>
  <text x="544" y="559" style="fill: #33322E;text-anchor: middle;">Acceuil</text>
  <rect x="627.5" y="395.5" height="31" width="102" style="stroke:#33322E;fill:#eee8d5;stroke-dasharray:none;"></rect>
  <text x="678.5" y="417" style="fill: #33322E;text-anchor: middle;">ImagePane</text>
</svg>